<?xml version="1.0" encoding="UTF-8" standalone="no"?>
<!DOCTYPE svg PUBLIC "-//W3C//DTD SVG 1.1//EN" "http://www.w3.org/Graphics/SVG/1.1/DTD/svg11.dtd">
<svg width="100%" height="100%" viewBox="0 0 480 140" version="1.1" xmlns="http://www.w3.org/2000/svg" xmlns:xlink="http://www.w3.org/1999/xlink" xml:space="preserve" xmlns:serif="http://www.serif.com/" style="fill-rule:evenodd;clip-rule:evenodd;stroke-linejoin:round;stroke-miterlimit:2;">
    <g transform="matrix(1,0,0,1,-190,-55)">
        <g transform="matrix(150,0,0,150,208.45,180.65)">
            <path d="M0.237,-0L0.237,-0.307L0.291,-0.166L-0.027,-0.7L0.222,-0.7L0.437,-0.335L0.292,-0.335L0.509,-0.7L0.737,-0.7L0.421,-0.166L0.473,-0.307L0.473,-0L0.237,-0Z" style="fill-rule:nonzero;"/>
        </g>
        <g transform="matrix(150,0,0,150,313.45,180.65)">
            <path d="M0.392,0.016C0.285,0.016 0.201,-0.013 0.141,-0.071C0.081,-0.129 0.051,-0.21 0.051,-0.315L0.051,-0.7L0.287,-0.7L0.287,-0.322C0.287,-0.269 0.297,-0.231 0.316,-0.208C0.335,-0.186 0.361,-0.175 0.394,-0.175C0.427,-0.175 0.454,-0.186 0.473,-0.208C0.491,-0.231 0.501,-0.269 0.501,-0.322L0.501,-0.7L0.733,-0.7L0.733,-0.315C0.733,-0.21 0.703,-0.129 0.643,-0.071C0.583,-0.013 0.499,0.016 0.392,0.016Z" style="fill-rule:nonzero;"/>
        </g>
        <g transform="matrix(150,0,0,150,431.05,180.65)">
            <path d="M0.234,-0L0.01,-0.7L0.253,-0.7L0.434,-0.109L0.312,-0.109L0.504,-0.7L0.721,-0.7L0.9,-0.109L0.783,-0.109L0.972,-0.7L1.196,-0.7L0.972,-0L0.719,-0L0.573,-0.484L0.641,-0.484L0.487,-0L0.234,-0Z" style="fill-rule:nonzero;"/>
        </g>
        <g transform="matrix(150,0,0,150,605.95,180.65)">
            <path d="M0.152,0.01C0.115,0.01 0.083,-0.002 0.058,-0.026C0.033,-0.051 0.02,-0.082 0.02,-0.12C0.02,-0.159 0.033,-0.19 0.058,-0.213C0.083,-0.236 0.115,-0.248 0.152,-0.248C0.189,-0.248 0.221,-0.236 0.246,-0.213C0.271,-0.19 0.284,-0.159 0.284,-0.12C0.284,-0.082 0.271,-0.051 0.246,-0.026C0.221,-0.002 0.189,0.01 0.152,0.01Z" style="fill:rgb(94,165,0);fill-rule:nonzero;"/>
        </g>
    </g>
</svg>
