<?xml version="1.0" encoding="UTF-8" standalone="no"?>
<!DOCTYPE svg PUBLIC "-//W3C//DTD SVG 1.1//EN" "http://www.w3.org/Graphics/SVG/1.1/DTD/svg11.dtd">
<svg width="100%" height="100%" viewBox="0 0 1000 500" version="1.1" xmlns="http://www.w3.org/2000/svg" xmlns:xlink="http://www.w3.org/1999/xlink" xml:space="preserve" xmlns:serif="http://www.serif.com/" style="fill-rule:evenodd;clip-rule:evenodd;stroke-linejoin:round;stroke-miterlimit:2;">
    <g transform="matrix(1,0,0,1,-201,-187)">
        <g transform="matrix(150,0,0,150,204.733067,325.191519)">
            <path d="M0.293,-0L0.293,-0.253L0.022,-0.728L0.254,-0.728L0.359,-0.508C0.369,-0.488 0.377,-0.468 0.385,-0.447C0.392,-0.426 0.4,-0.402 0.408,-0.375L0.379,-0.375C0.386,-0.402 0.393,-0.426 0.4,-0.447C0.407,-0.468 0.415,-0.488 0.424,-0.508L0.522,-0.728L0.753,-0.728L0.49,-0.253L0.49,-0L0.293,-0Z" style="fill-rule:nonzero;"/>
        </g>
        <g transform="matrix(150,0,0,150,314.174473,325.191519)">
            <path d="M0.388,0.01C0.322,0.01 0.262,-0.005 0.208,-0.033C0.155,-0.062 0.112,-0.104 0.081,-0.159C0.05,-0.215 0.034,-0.283 0.034,-0.363C0.034,-0.444 0.05,-0.513 0.081,-0.568C0.112,-0.624 0.155,-0.666 0.208,-0.695C0.262,-0.723 0.322,-0.737 0.388,-0.737C0.454,-0.737 0.514,-0.723 0.567,-0.695C0.62,-0.666 0.663,-0.624 0.694,-0.568C0.726,-0.513 0.741,-0.444 0.741,-0.363C0.741,-0.283 0.726,-0.214 0.694,-0.159C0.663,-0.103 0.62,-0.061 0.567,-0.033C0.514,-0.004 0.454,0.01 0.388,0.01ZM0.388,-0.162C0.421,-0.162 0.448,-0.17 0.47,-0.185C0.493,-0.201 0.51,-0.223 0.521,-0.253C0.532,-0.283 0.538,-0.32 0.538,-0.363C0.538,-0.407 0.532,-0.444 0.521,-0.474C0.51,-0.504 0.493,-0.527 0.47,-0.542C0.448,-0.558 0.421,-0.565 0.388,-0.565C0.355,-0.565 0.328,-0.558 0.305,-0.542C0.283,-0.527 0.266,-0.504 0.255,-0.474C0.243,-0.444 0.237,-0.407 0.237,-0.363C0.237,-0.32 0.243,-0.283 0.255,-0.253C0.266,-0.223 0.283,-0.201 0.305,-0.185C0.328,-0.17 0.355,-0.162 0.388,-0.162Z" style="fill-rule:nonzero;"/>
        </g>
        <g transform="matrix(150,0,0,150,431.233067,325.191519)">
            <path d="M0.36,0.009C0.298,0.009 0.243,-0.002 0.196,-0.024C0.149,-0.046 0.112,-0.077 0.086,-0.118C0.06,-0.158 0.047,-0.206 0.047,-0.262L0.047,-0.728L0.244,-0.728L0.244,-0.278C0.244,-0.256 0.249,-0.235 0.259,-0.218C0.269,-0.201 0.283,-0.187 0.301,-0.177C0.318,-0.167 0.338,-0.162 0.36,-0.162C0.383,-0.162 0.403,-0.167 0.421,-0.177C0.438,-0.187 0.452,-0.201 0.462,-0.218C0.472,-0.235 0.478,-0.256 0.478,-0.278L0.478,-0.728L0.675,-0.728L0.675,-0.262C0.675,-0.206 0.662,-0.158 0.635,-0.118C0.609,-0.077 0.572,-0.046 0.525,-0.024C0.478,-0.002 0.423,0.009 0.36,0.009Z" style="fill-rule:nonzero;"/>
        </g>
        <g transform="matrix(150,0,0,150,540.23502,325.191519)">
            <path d="M0.047,-0L0.047,-0.728L0.36,-0.728C0.414,-0.728 0.462,-0.718 0.502,-0.698C0.543,-0.678 0.574,-0.65 0.597,-0.613C0.62,-0.576 0.631,-0.532 0.631,-0.48C0.631,-0.428 0.619,-0.384 0.596,-0.349C0.573,-0.313 0.541,-0.286 0.499,-0.268C0.457,-0.249 0.409,-0.24 0.354,-0.24L0.166,-0.24L0.166,-0.394L0.313,-0.394C0.337,-0.394 0.357,-0.396 0.374,-0.402C0.39,-0.408 0.403,-0.417 0.412,-0.43C0.42,-0.443 0.425,-0.46 0.425,-0.48C0.425,-0.501 0.42,-0.518 0.412,-0.531C0.403,-0.544 0.39,-0.554 0.374,-0.56C0.357,-0.566 0.337,-0.569 0.313,-0.569L0.244,-0.569L0.244,-0L0.047,-0ZM0.44,-0L0.263,-0.334L0.473,-0.334L0.655,-0L0.44,-0Z" style="fill-rule:nonzero;"/>
        </g>
        <g transform="matrix(150,0,0,150,204.733067,500.191519)">
            <path d="M0.36,0.009C0.298,0.009 0.243,-0.002 0.196,-0.024C0.149,-0.046 0.112,-0.077 0.086,-0.118C0.06,-0.158 0.047,-0.206 0.047,-0.262L0.047,-0.728L0.244,-0.728L0.244,-0.278C0.244,-0.256 0.249,-0.235 0.259,-0.218C0.269,-0.201 0.283,-0.187 0.301,-0.177C0.318,-0.167 0.338,-0.162 0.36,-0.162C0.383,-0.162 0.403,-0.167 0.421,-0.177C0.438,-0.187 0.452,-0.201 0.462,-0.218C0.472,-0.235 0.478,-0.256 0.478,-0.278L0.478,-0.728L0.675,-0.728L0.675,-0.262C0.675,-0.206 0.662,-0.158 0.635,-0.118C0.609,-0.077 0.572,-0.046 0.525,-0.024C0.478,-0.002 0.423,0.009 0.36,0.009Z" style="fill-rule:nonzero;"/>
        </g>
        <g transform="matrix(150,0,0,150,313.73502,500.191519)">
            <path d="M0.047,-0L0.047,-0.728L0.244,-0.728L0.244,-0.159L0.538,-0.159L0.538,-0L0.047,-0Z" style="fill-rule:nonzero;"/>
        </g>
        <g transform="matrix(150,0,0,150,386.335606,500.191519)">
            <path d="M0.027,-0.568L0.027,-0.728L0.659,-0.728L0.659,-0.568L0.442,-0.568L0.442,-0L0.245,-0L0.245,-0.568L0.027,-0.568Z" style="fill-rule:nonzero;"/>
        </g>
        <g transform="matrix(150,0,0,150,490.064122,500.191519)">
            <rect x="0.047" y="-0.728" width="0.197" height="0.728" style="fill-rule:nonzero;"/>
        </g>
        <g transform="matrix(150,0,0,150,534.466466,500.191519)">
            <path d="M0.047,-0L0.047,-0.728L0.358,-0.728L0.424,-0.5C0.429,-0.48 0.436,-0.455 0.443,-0.422C0.45,-0.39 0.457,-0.356 0.464,-0.319C0.471,-0.282 0.478,-0.246 0.483,-0.212C0.489,-0.178 0.494,-0.149 0.497,-0.126L0.46,-0.126C0.464,-0.149 0.468,-0.178 0.474,-0.212C0.48,-0.246 0.486,-0.282 0.493,-0.319C0.5,-0.356 0.507,-0.39 0.514,-0.422C0.521,-0.455 0.527,-0.48 0.533,-0.5L0.597,-0.728L0.909,-0.728L0.909,-0L0.71,-0L0.71,-0.281C0.71,-0.298 0.71,-0.32 0.711,-0.347C0.712,-0.375 0.713,-0.405 0.714,-0.438C0.715,-0.471 0.716,-0.504 0.717,-0.537C0.717,-0.57 0.718,-0.601 0.718,-0.629L0.729,-0.629C0.723,-0.598 0.716,-0.566 0.709,-0.532C0.701,-0.499 0.694,-0.467 0.686,-0.435C0.678,-0.403 0.671,-0.374 0.664,-0.347C0.656,-0.321 0.65,-0.299 0.645,-0.281L0.561,-0L0.396,-0L0.311,-0.281C0.305,-0.299 0.299,-0.321 0.292,-0.347C0.284,-0.374 0.277,-0.403 0.269,-0.435C0.26,-0.467 0.253,-0.499 0.245,-0.532C0.237,-0.566 0.23,-0.598 0.224,-0.629L0.238,-0.629C0.238,-0.601 0.239,-0.57 0.24,-0.537C0.24,-0.504 0.241,-0.471 0.242,-0.438C0.243,-0.405 0.244,-0.375 0.245,-0.347C0.246,-0.32 0.246,-0.298 0.246,-0.281L0.246,-0L0.047,-0Z" style="fill-rule:nonzero;"/>
        </g>
        <g transform="matrix(150,0,0,150,678.624669,500.191519)">
            <path d="M0.022,-0L0.258,-0.728L0.528,-0.728L0.772,-0L0.549,-0L0.464,-0.282C0.446,-0.343 0.429,-0.407 0.413,-0.473C0.397,-0.539 0.382,-0.604 0.368,-0.669L0.413,-0.669C0.399,-0.604 0.385,-0.539 0.371,-0.473C0.357,-0.407 0.341,-0.343 0.324,-0.282L0.243,-0L0.022,-0ZM0.197,-0.14L0.197,-0.287L0.598,-0.287L0.598,-0.14L0.197,-0.14Z" style="fill-rule:nonzero;"/>
        </g>
        <g transform="matrix(150,0,0,150,784.770177,500.191519)">
            <path d="M0.027,-0.568L0.027,-0.728L0.659,-0.728L0.659,-0.568L0.442,-0.568L0.442,-0L0.245,-0L0.245,-0.568L0.027,-0.568Z" style="fill-rule:nonzero;"/>
        </g>
        <g transform="matrix(150,0,0,150,888.498692,500.191519)">
            <path d="M0.047,-0L0.047,-0.728L0.571,-0.728L0.571,-0.568L0.244,-0.568L0.244,-0.445L0.544,-0.445L0.544,-0.29L0.244,-0.29L0.244,-0.159L0.569,-0.159L0.569,-0L0.047,-0Z" style="fill-rule:nonzero;"/>
        </g>
        <g transform="matrix(150,0,0,150,204.733067,675.191519)">
            <path d="M0.215,-0L0.022,-0.728L0.243,-0.728L0.301,-0.445C0.309,-0.41 0.315,-0.371 0.321,-0.329C0.327,-0.287 0.333,-0.245 0.339,-0.203C0.344,-0.161 0.35,-0.122 0.356,-0.086L0.317,-0.086C0.324,-0.122 0.33,-0.161 0.336,-0.203C0.343,-0.245 0.349,-0.287 0.356,-0.329C0.362,-0.371 0.37,-0.41 0.378,-0.445L0.442,-0.728L0.64,-0.728L0.704,-0.445C0.712,-0.41 0.72,-0.371 0.726,-0.329C0.733,-0.287 0.739,-0.245 0.746,-0.203C0.752,-0.161 0.758,-0.122 0.765,-0.086L0.726,-0.086C0.732,-0.122 0.738,-0.161 0.743,-0.203C0.749,-0.245 0.754,-0.287 0.76,-0.329C0.767,-0.371 0.773,-0.41 0.78,-0.445L0.839,-0.728L1.06,-0.728L0.867,-0L0.644,-0L0.571,-0.296C0.559,-0.347 0.549,-0.403 0.542,-0.462C0.534,-0.521 0.526,-0.578 0.515,-0.633L0.567,-0.633C0.555,-0.578 0.545,-0.521 0.539,-0.462C0.533,-0.403 0.524,-0.348 0.511,-0.296L0.438,-0L0.215,-0Z" style="fill-rule:nonzero;"/>
        </g>
        <g transform="matrix(150,0,0,150,360.976231,675.191519)">
            <path d="M0.388,0.01C0.322,0.01 0.262,-0.005 0.208,-0.033C0.155,-0.062 0.112,-0.104 0.081,-0.159C0.05,-0.215 0.034,-0.283 0.034,-0.363C0.034,-0.444 0.05,-0.513 0.081,-0.568C0.112,-0.624 0.155,-0.666 0.208,-0.695C0.262,-0.723 0.322,-0.737 0.388,-0.737C0.454,-0.737 0.514,-0.723 0.567,-0.695C0.62,-0.666 0.663,-0.624 0.694,-0.568C0.726,-0.513 0.741,-0.444 0.741,-0.363C0.741,-0.283 0.726,-0.214 0.694,-0.159C0.663,-0.103 0.62,-0.061 0.567,-0.033C0.514,-0.004 0.454,0.01 0.388,0.01ZM0.388,-0.162C0.421,-0.162 0.448,-0.17 0.47,-0.185C0.493,-0.201 0.51,-0.223 0.521,-0.253C0.532,-0.283 0.538,-0.32 0.538,-0.363C0.538,-0.407 0.532,-0.444 0.521,-0.474C0.51,-0.504 0.493,-0.527 0.47,-0.542C0.448,-0.558 0.421,-0.565 0.388,-0.565C0.355,-0.565 0.328,-0.558 0.305,-0.542C0.283,-0.527 0.266,-0.504 0.255,-0.474C0.243,-0.444 0.237,-0.407 0.237,-0.363C0.237,-0.32 0.243,-0.283 0.255,-0.253C0.266,-0.223 0.283,-0.201 0.305,-0.185C0.328,-0.17 0.355,-0.162 0.388,-0.162Z" style="fill-rule:nonzero;"/>
        </g>
        <g transform="matrix(150,0,0,150,478.034825,675.191519)">
            <path d="M0.047,-0L0.047,-0.728L0.36,-0.728C0.414,-0.728 0.462,-0.718 0.502,-0.698C0.543,-0.678 0.574,-0.65 0.597,-0.613C0.62,-0.576 0.631,-0.532 0.631,-0.48C0.631,-0.428 0.619,-0.384 0.596,-0.349C0.573,-0.313 0.541,-0.286 0.499,-0.268C0.457,-0.249 0.409,-0.24 0.354,-0.24L0.166,-0.24L0.166,-0.394L0.313,-0.394C0.337,-0.394 0.357,-0.396 0.374,-0.402C0.39,-0.408 0.403,-0.417 0.412,-0.43C0.42,-0.443 0.425,-0.46 0.425,-0.48C0.425,-0.501 0.42,-0.518 0.412,-0.531C0.403,-0.544 0.39,-0.554 0.374,-0.56C0.357,-0.566 0.337,-0.569 0.313,-0.569L0.244,-0.569L0.244,-0L0.047,-0ZM0.44,-0L0.263,-0.334L0.473,-0.334L0.655,-0L0.44,-0Z" style="fill-rule:nonzero;"/>
        </g>
        <g transform="matrix(150,0,0,150,578.980137,675.191519)">
            <path d="M0.197,-0.127L0.197,-0.294C0.21,-0.325 0.223,-0.353 0.236,-0.377C0.249,-0.402 0.263,-0.427 0.281,-0.452C0.298,-0.478 0.319,-0.507 0.345,-0.541L0.489,-0.728L0.723,-0.728L0.419,-0.353L0.4,-0.361L0.197,-0.127ZM0.047,-0L0.047,-0.728L0.244,-0.728L0.244,-0.571L0.24,-0.362L0.244,-0.266L0.244,-0L0.047,-0ZM0.504,-0L0.329,-0.292L0.454,-0.437L0.737,-0L0.504,-0Z" style="fill-rule:nonzero;"/>
        </g>
        <g transform="matrix(150,0,0,150,692.156895,675.191519)">
            <path d="M0.343,0.009C0.28,0.009 0.225,-0.001 0.177,-0.019C0.13,-0.038 0.094,-0.067 0.068,-0.106C0.042,-0.145 0.029,-0.195 0.028,-0.256L0.216,-0.256C0.217,-0.234 0.223,-0.215 0.233,-0.2C0.243,-0.184 0.257,-0.173 0.275,-0.165C0.293,-0.157 0.314,-0.153 0.34,-0.153C0.361,-0.153 0.379,-0.156 0.393,-0.161C0.407,-0.166 0.418,-0.174 0.426,-0.183C0.433,-0.192 0.437,-0.203 0.437,-0.215C0.437,-0.226 0.433,-0.236 0.426,-0.244C0.419,-0.252 0.408,-0.26 0.392,-0.267C0.376,-0.273 0.354,-0.28 0.327,-0.285L0.254,-0.301C0.19,-0.314 0.139,-0.338 0.102,-0.371C0.065,-0.404 0.047,-0.449 0.047,-0.506C0.047,-0.552 0.059,-0.593 0.084,-0.627C0.11,-0.662 0.144,-0.689 0.188,-0.708C0.232,-0.728 0.283,-0.737 0.341,-0.737C0.4,-0.737 0.451,-0.727 0.493,-0.708C0.536,-0.688 0.569,-0.66 0.593,-0.625C0.616,-0.589 0.628,-0.548 0.628,-0.5L0.438,-0.5C0.437,-0.524 0.428,-0.542 0.412,-0.555C0.397,-0.569 0.373,-0.575 0.341,-0.575C0.321,-0.575 0.304,-0.573 0.291,-0.568C0.278,-0.563 0.268,-0.557 0.262,-0.548C0.256,-0.54 0.253,-0.53 0.253,-0.52C0.253,-0.508 0.256,-0.498 0.263,-0.49C0.27,-0.481 0.28,-0.473 0.295,-0.467C0.309,-0.461 0.328,-0.455 0.351,-0.45L0.41,-0.438C0.45,-0.429 0.485,-0.418 0.513,-0.404C0.542,-0.39 0.566,-0.373 0.584,-0.355C0.603,-0.336 0.616,-0.315 0.625,-0.292C0.633,-0.268 0.638,-0.243 0.638,-0.215C0.638,-0.167 0.626,-0.126 0.602,-0.093C0.579,-0.06 0.545,-0.034 0.501,-0.017C0.457,0 0.404,0.009 0.343,0.009Z" style="fill-rule:nonzero;"/>
        </g>
        <g transform="matrix(150,0,0,150,792.809239,675.191519)">
            <path d="M0.047,-0L0.047,-0.728L0.36,-0.728C0.414,-0.728 0.462,-0.717 0.502,-0.696C0.543,-0.674 0.574,-0.644 0.597,-0.605C0.62,-0.567 0.631,-0.521 0.631,-0.47C0.631,-0.418 0.619,-0.373 0.596,-0.335C0.573,-0.297 0.541,-0.267 0.499,-0.247C0.457,-0.226 0.409,-0.216 0.354,-0.216L0.166,-0.216L0.166,-0.369L0.313,-0.369C0.337,-0.369 0.357,-0.373 0.374,-0.382C0.39,-0.39 0.403,-0.402 0.412,-0.417C0.42,-0.431 0.425,-0.449 0.425,-0.47C0.425,-0.491 0.42,-0.509 0.412,-0.524C0.403,-0.538 0.39,-0.55 0.374,-0.558C0.357,-0.565 0.337,-0.569 0.313,-0.569L0.244,-0.569L0.244,-0L0.047,-0Z" style="fill-rule:nonzero;"/>
        </g>
        <g transform="matrix(150,0,0,150,878.373692,675.191519)">
            <path d="M0.022,-0L0.258,-0.728L0.528,-0.728L0.772,-0L0.549,-0L0.464,-0.282C0.446,-0.343 0.429,-0.407 0.413,-0.473C0.397,-0.539 0.382,-0.604 0.368,-0.669L0.413,-0.669C0.399,-0.604 0.385,-0.539 0.371,-0.473C0.357,-0.407 0.341,-0.343 0.324,-0.282L0.243,-0L0.022,-0ZM0.197,-0.14L0.197,-0.287L0.598,-0.287L0.598,-0.14L0.197,-0.14Z" style="fill-rule:nonzero;"/>
        </g>
        <g transform="matrix(150,0,0,150,991.037755,675.191519)">
            <path d="M0.385,0.01C0.318,0.01 0.259,-0.005 0.206,-0.033C0.153,-0.062 0.111,-0.104 0.08,-0.159C0.05,-0.215 0.034,-0.283 0.034,-0.363C0.034,-0.444 0.05,-0.513 0.081,-0.568C0.112,-0.624 0.154,-0.666 0.208,-0.695C0.261,-0.723 0.32,-0.737 0.385,-0.737C0.43,-0.737 0.472,-0.731 0.51,-0.719C0.548,-0.707 0.582,-0.689 0.611,-0.666C0.64,-0.642 0.663,-0.613 0.681,-0.579C0.699,-0.545 0.71,-0.506 0.715,-0.462L0.515,-0.462C0.513,-0.478 0.509,-0.492 0.502,-0.504C0.496,-0.517 0.487,-0.528 0.477,-0.537C0.467,-0.546 0.454,-0.553 0.44,-0.558C0.425,-0.563 0.409,-0.565 0.391,-0.565C0.358,-0.565 0.33,-0.557 0.307,-0.541C0.284,-0.525 0.267,-0.502 0.255,-0.472C0.243,-0.442 0.237,-0.406 0.237,-0.363C0.237,-0.319 0.243,-0.282 0.255,-0.252C0.267,-0.222 0.285,-0.2 0.307,-0.185C0.33,-0.17 0.357,-0.162 0.39,-0.162C0.408,-0.162 0.424,-0.165 0.438,-0.169C0.453,-0.174 0.465,-0.181 0.476,-0.19C0.487,-0.2 0.496,-0.21 0.502,-0.223C0.509,-0.236 0.513,-0.25 0.516,-0.266L0.716,-0.266C0.714,-0.235 0.705,-0.203 0.69,-0.171C0.675,-0.139 0.654,-0.109 0.627,-0.082C0.599,-0.054 0.565,-0.032 0.525,-0.015C0.485,0.001 0.438,0.01 0.385,0.01Z" style="fill-rule:nonzero;"/>
        </g>
        <g transform="matrix(150,0,0,150,1103.921544,675.191519)">
            <path d="M0.047,-0L0.047,-0.728L0.571,-0.728L0.571,-0.568L0.244,-0.568L0.244,-0.445L0.544,-0.445L0.544,-0.29L0.244,-0.29L0.244,-0.159L0.569,-0.159L0.569,-0L0.047,-0Z" style="fill-rule:nonzero;"/>
        </g>
    </g>
</svg>
