<?xml version="1.0" encoding="UTF-8" standalone="no"?>
<!DOCTYPE svg PUBLIC "-//W3C//DTD SVG 1.1//EN" "http://www.w3.org/Graphics/SVG/1.1/DTD/svg11.dtd">
<svg width="100%" height="100%" viewBox="0 0 1000 500" version="1.1" xmlns="http://www.w3.org/2000/svg" xmlns:xlink="http://www.w3.org/1999/xlink" xml:space="preserve" xmlns:serif="http://www.serif.com/" style="fill-rule:evenodd;clip-rule:evenodd;stroke-linejoin:round;stroke-miterlimit:2;">
    <g transform="matrix(1,0,0,1,-201,-187)">
        <g transform="matrix(150,0,0,150,204.733067,325.191519)">
            <path d="M0.293,-0L0.293,-0.282L0.024,-0.728L0.177,-0.728L0.307,-0.498C0.32,-0.474 0.333,-0.451 0.343,-0.428C0.354,-0.405 0.365,-0.377 0.376,-0.344L0.342,-0.344C0.353,-0.377 0.364,-0.406 0.375,-0.429C0.385,-0.452 0.397,-0.475 0.41,-0.498L0.538,-0.728L0.689,-0.728L0.423,-0.282L0.423,-0L0.293,-0Z" style="fill-rule:nonzero;"/>
        </g>
        <g transform="matrix(150,0,0,150,306.504339,325.191519)">
            <path d="M0.385,0.01C0.321,0.01 0.264,-0.005 0.214,-0.035C0.163,-0.064 0.123,-0.107 0.094,-0.163C0.065,-0.218 0.05,-0.285 0.05,-0.363C0.05,-0.442 0.065,-0.509 0.094,-0.565C0.123,-0.621 0.163,-0.663 0.214,-0.693C0.264,-0.722 0.321,-0.737 0.385,-0.737C0.448,-0.737 0.505,-0.722 0.555,-0.693C0.606,-0.663 0.645,-0.621 0.674,-0.565C0.704,-0.509 0.718,-0.442 0.718,-0.363C0.718,-0.285 0.704,-0.218 0.674,-0.162C0.645,-0.107 0.606,-0.064 0.555,-0.035C0.505,-0.005 0.448,0.01 0.385,0.01ZM0.385,-0.107C0.424,-0.107 0.459,-0.117 0.49,-0.137C0.52,-0.156 0.544,-0.185 0.561,-0.223C0.578,-0.261 0.587,-0.308 0.587,-0.363C0.587,-0.419 0.578,-0.466 0.561,-0.504C0.544,-0.542 0.52,-0.571 0.49,-0.591C0.459,-0.611 0.424,-0.62 0.385,-0.62C0.345,-0.62 0.31,-0.611 0.279,-0.591C0.249,-0.571 0.225,-0.542 0.207,-0.504C0.19,-0.466 0.181,-0.419 0.181,-0.363C0.181,-0.308 0.19,-0.261 0.207,-0.223C0.225,-0.185 0.249,-0.156 0.279,-0.137C0.31,-0.117 0.345,-0.107 0.385,-0.107Z" style="fill-rule:nonzero;"/>
        </g>
        <g transform="matrix(150,0,0,150,422.531659,325.191519)">
            <path d="M0.368,0.011C0.309,0.011 0.257,-0 0.213,-0.023C0.169,-0.045 0.134,-0.076 0.11,-0.116C0.085,-0.155 0.073,-0.201 0.073,-0.253L0.073,-0.728L0.204,-0.728L0.204,-0.263C0.204,-0.233 0.21,-0.206 0.224,-0.182C0.237,-0.158 0.256,-0.14 0.281,-0.126C0.306,-0.113 0.335,-0.106 0.368,-0.106C0.402,-0.106 0.431,-0.113 0.455,-0.126C0.48,-0.14 0.499,-0.158 0.512,-0.182C0.526,-0.206 0.533,-0.233 0.533,-0.263L0.533,-0.728L0.663,-0.728L0.663,-0.253C0.663,-0.201 0.651,-0.155 0.626,-0.116C0.602,-0.076 0.567,-0.045 0.523,-0.023C0.479,-0 0.427,0.011 0.368,0.011Z" style="fill-rule:nonzero;"/>
        </g>
        <g transform="matrix(150,0,0,150,533.689912,325.191519)">
            <path d="M0.073,-0L0.073,-0.728L0.345,-0.728C0.401,-0.728 0.448,-0.718 0.486,-0.698C0.524,-0.679 0.553,-0.652 0.572,-0.617C0.592,-0.582 0.601,-0.541 0.601,-0.495C0.601,-0.448 0.592,-0.408 0.572,-0.374C0.552,-0.34 0.523,-0.313 0.485,-0.295C0.447,-0.276 0.399,-0.267 0.343,-0.267L0.149,-0.267L0.149,-0.375L0.326,-0.375C0.359,-0.375 0.386,-0.38 0.407,-0.389C0.428,-0.398 0.443,-0.412 0.453,-0.43C0.463,-0.448 0.468,-0.469 0.468,-0.495C0.468,-0.521 0.463,-0.543 0.453,-0.561C0.443,-0.58 0.428,-0.594 0.407,-0.604C0.386,-0.613 0.359,-0.618 0.325,-0.618L0.204,-0.618L0.204,-0L0.073,-0ZM0.482,-0L0.306,-0.33L0.448,-0.33L0.628,-0L0.482,-0Z" style="fill-rule:nonzero;"/>
        </g>
        <g transform="matrix(150,0,0,150,204.733067,500.191519)">
            <path d="M0.368,0.011C0.309,0.011 0.257,-0 0.213,-0.023C0.169,-0.045 0.134,-0.076 0.11,-0.116C0.085,-0.155 0.073,-0.201 0.073,-0.253L0.073,-0.728L0.204,-0.728L0.204,-0.263C0.204,-0.233 0.21,-0.206 0.224,-0.182C0.237,-0.158 0.256,-0.14 0.281,-0.126C0.306,-0.113 0.335,-0.106 0.368,-0.106C0.402,-0.106 0.431,-0.113 0.455,-0.126C0.48,-0.14 0.499,-0.158 0.512,-0.182C0.526,-0.206 0.533,-0.233 0.533,-0.263L0.533,-0.728L0.663,-0.728L0.663,-0.253C0.663,-0.201 0.651,-0.155 0.626,-0.116C0.602,-0.076 0.567,-0.045 0.523,-0.023C0.479,-0 0.427,0.011 0.368,0.011Z" style="fill-rule:nonzero;"/>
        </g>
        <g transform="matrix(150,0,0,150,315.89132,500.191519)">
            <path d="M0.073,-0L0.073,-0.728L0.204,-0.728L0.204,-0.11L0.525,-0.11L0.525,-0L0.073,-0Z" style="fill-rule:nonzero;"/>
        </g>
        <g transform="matrix(150,0,0,150,387.539757,500.191519)">
            <path d="M0.04,-0.618L0.04,-0.728L0.62,-0.728L0.62,-0.618L0.396,-0.618L0.396,-0L0.265,-0L0.265,-0.618L0.04,-0.618Z" style="fill-rule:nonzero;"/>
        </g>
        <g transform="matrix(150,0,0,150,487.330683,500.191519)">
            <rect x="0.073" y="-0.728" width="0.13" height="0.728" style="fill-rule:nonzero;"/>
        </g>
        <g transform="matrix(150,0,0,150,529.576727,500.191519)">
            <path d="M0.073,-0L0.073,-0.728L0.27,-0.728L0.408,-0.352C0.413,-0.338 0.418,-0.32 0.424,-0.298C0.43,-0.276 0.436,-0.253 0.443,-0.227C0.449,-0.202 0.455,-0.177 0.461,-0.153C0.466,-0.129 0.471,-0.107 0.475,-0.088L0.449,-0.088C0.453,-0.106 0.458,-0.128 0.463,-0.152C0.469,-0.176 0.475,-0.2 0.481,-0.226C0.487,-0.251 0.494,-0.275 0.5,-0.297C0.506,-0.32 0.511,-0.338 0.516,-0.352L0.652,-0.728L0.849,-0.728L0.849,-0L0.719,-0L0.719,-0.367C0.719,-0.383 0.719,-0.402 0.72,-0.424C0.72,-0.446 0.721,-0.47 0.721,-0.495C0.722,-0.521 0.723,-0.546 0.723,-0.572C0.724,-0.598 0.724,-0.623 0.724,-0.646L0.733,-0.646C0.727,-0.62 0.72,-0.594 0.712,-0.567C0.705,-0.54 0.697,-0.514 0.69,-0.489C0.682,-0.464 0.675,-0.44 0.668,-0.419C0.662,-0.398 0.656,-0.381 0.651,-0.367L0.516,-0L0.406,-0L0.269,-0.367C0.265,-0.381 0.259,-0.398 0.252,-0.419C0.246,-0.439 0.239,-0.462 0.231,-0.487C0.223,-0.512 0.216,-0.538 0.208,-0.566C0.2,-0.593 0.192,-0.619 0.185,-0.646L0.196,-0.646C0.196,-0.624 0.197,-0.6 0.197,-0.575C0.198,-0.549 0.198,-0.524 0.199,-0.498C0.2,-0.472 0.2,-0.448 0.201,-0.426C0.201,-0.403 0.201,-0.383 0.201,-0.367L0.201,-0L0.073,-0Z" style="fill-rule:nonzero;"/>
        </g>
        <g transform="matrix(150,0,0,150,668.672314,500.191519)">
            <path d="M0.024,-0L0.278,-0.728L0.444,-0.728L0.703,-0L0.56,-0L0.431,-0.378C0.419,-0.417 0.405,-0.461 0.392,-0.51C0.378,-0.56 0.363,-0.616 0.346,-0.679L0.374,-0.679C0.357,-0.615 0.343,-0.559 0.329,-0.509C0.316,-0.459 0.304,-0.416 0.292,-0.378L0.167,-0L0.024,-0ZM0.172,-0.18L0.172,-0.285L0.555,-0.285L0.555,-0.18L0.172,-0.18Z" style="fill-rule:nonzero;"/>
        </g>
        <g transform="matrix(150,0,0,150,765.471888,500.191519)">
            <path d="M0.04,-0.618L0.04,-0.728L0.62,-0.728L0.62,-0.618L0.396,-0.618L0.396,-0L0.265,-0L0.265,-0.618L0.04,-0.618Z" style="fill-rule:nonzero;"/>
        </g>
        <g transform="matrix(150,0,0,150,865.262814,500.191519)">
            <path d="M0.073,-0L0.073,-0.728L0.546,-0.728L0.546,-0.618L0.204,-0.618L0.204,-0.422L0.521,-0.422L0.521,-0.313L0.204,-0.313L0.204,-0.11L0.548,-0.11L0.548,-0L0.073,-0Z" style="fill-rule:nonzero;"/>
        </g>
        <g transform="matrix(150,0,0,150,204.733067,675.191519)">
            <path d="M0.221,-0L0.024,-0.728L0.164,-0.728L0.259,-0.34C0.266,-0.312 0.272,-0.283 0.278,-0.252C0.283,-0.221 0.289,-0.19 0.294,-0.159C0.299,-0.127 0.305,-0.097 0.31,-0.067L0.288,-0.067C0.294,-0.097 0.3,-0.127 0.305,-0.159C0.311,-0.19 0.317,-0.221 0.323,-0.252C0.329,-0.283 0.335,-0.312 0.342,-0.34L0.441,-0.728L0.579,-0.728L0.677,-0.34C0.684,-0.312 0.691,-0.283 0.697,-0.252C0.703,-0.221 0.709,-0.19 0.715,-0.159C0.72,-0.127 0.726,-0.097 0.732,-0.067L0.709,-0.067C0.715,-0.097 0.72,-0.127 0.725,-0.159C0.731,-0.19 0.736,-0.221 0.742,-0.252C0.748,-0.283 0.754,-0.312 0.761,-0.34L0.855,-0.728L0.996,-0.728L0.799,-0L0.649,-0L0.543,-0.402C0.534,-0.439 0.525,-0.48 0.518,-0.524C0.51,-0.568 0.503,-0.614 0.494,-0.664L0.525,-0.664C0.516,-0.616 0.509,-0.571 0.502,-0.528C0.495,-0.484 0.487,-0.442 0.476,-0.402L0.37,-0L0.221,-0Z" style="fill-rule:nonzero;"/>
        </g>
        <g transform="matrix(150,0,0,150,356.0893,675.191519)">
            <path d="M0.385,0.01C0.321,0.01 0.264,-0.005 0.214,-0.035C0.163,-0.064 0.123,-0.107 0.094,-0.163C0.065,-0.218 0.05,-0.285 0.05,-0.363C0.05,-0.442 0.065,-0.509 0.094,-0.565C0.123,-0.621 0.163,-0.663 0.214,-0.693C0.264,-0.722 0.321,-0.737 0.385,-0.737C0.448,-0.737 0.505,-0.722 0.555,-0.693C0.606,-0.663 0.645,-0.621 0.674,-0.565C0.704,-0.509 0.718,-0.442 0.718,-0.363C0.718,-0.285 0.704,-0.218 0.674,-0.162C0.645,-0.107 0.606,-0.064 0.555,-0.035C0.505,-0.005 0.448,0.01 0.385,0.01ZM0.385,-0.107C0.424,-0.107 0.459,-0.117 0.49,-0.137C0.52,-0.156 0.544,-0.185 0.561,-0.223C0.578,-0.261 0.587,-0.308 0.587,-0.363C0.587,-0.419 0.578,-0.466 0.561,-0.504C0.544,-0.542 0.52,-0.571 0.49,-0.591C0.459,-0.611 0.424,-0.62 0.385,-0.62C0.345,-0.62 0.31,-0.611 0.279,-0.591C0.249,-0.571 0.225,-0.542 0.207,-0.504C0.19,-0.466 0.181,-0.419 0.181,-0.363C0.181,-0.308 0.19,-0.261 0.207,-0.223C0.225,-0.185 0.249,-0.156 0.279,-0.137C0.31,-0.117 0.345,-0.107 0.385,-0.107Z" style="fill-rule:nonzero;"/>
        </g>
        <g transform="matrix(150,0,0,150,472.11662,675.191519)">
            <path d="M0.073,-0L0.073,-0.728L0.345,-0.728C0.401,-0.728 0.448,-0.718 0.486,-0.698C0.524,-0.679 0.553,-0.652 0.572,-0.617C0.592,-0.582 0.601,-0.541 0.601,-0.495C0.601,-0.448 0.592,-0.408 0.572,-0.374C0.552,-0.34 0.523,-0.313 0.485,-0.295C0.447,-0.276 0.399,-0.267 0.343,-0.267L0.149,-0.267L0.149,-0.375L0.326,-0.375C0.359,-0.375 0.386,-0.38 0.407,-0.389C0.428,-0.398 0.443,-0.412 0.453,-0.43C0.463,-0.448 0.468,-0.469 0.468,-0.495C0.468,-0.521 0.463,-0.543 0.453,-0.561C0.443,-0.58 0.428,-0.594 0.407,-0.604C0.386,-0.613 0.359,-0.618 0.325,-0.618L0.204,-0.618L0.204,-0L0.073,-0ZM0.482,-0L0.306,-0.33L0.448,-0.33L0.628,-0L0.482,-0Z" style="fill-rule:nonzero;"/>
        </g>
        <g transform="matrix(150,0,0,150,570.718129,675.191519)">
            <path d="M0.168,-0.179L0.168,-0.303C0.183,-0.328 0.198,-0.352 0.213,-0.374C0.229,-0.396 0.245,-0.418 0.262,-0.44C0.279,-0.462 0.298,-0.485 0.319,-0.51L0.51,-0.728L0.672,-0.728L0.364,-0.38L0.354,-0.383L0.168,-0.179ZM0.073,-0L0.073,-0.728L0.204,-0.728L0.204,-0.512L0.201,-0.336L0.204,-0.272L0.204,-0L0.073,-0ZM0.523,-0L0.292,-0.342L0.374,-0.44L0.677,-0L0.523,-0Z" style="fill-rule:nonzero;"/>
        </g>
        <g transform="matrix(150,0,0,150,675.50407,675.191519)">
            <path d="M0.329,0.011C0.272,0.011 0.223,0.003 0.182,-0.015C0.14,-0.033 0.108,-0.058 0.084,-0.092C0.061,-0.125 0.048,-0.166 0.046,-0.214L0.175,-0.214C0.177,-0.189 0.185,-0.167 0.199,-0.15C0.213,-0.134 0.231,-0.121 0.253,-0.113C0.276,-0.104 0.3,-0.1 0.328,-0.1C0.356,-0.1 0.382,-0.105 0.404,-0.113C0.425,-0.122 0.443,-0.134 0.455,-0.15C0.467,-0.166 0.474,-0.184 0.474,-0.205C0.474,-0.224 0.468,-0.24 0.457,-0.252C0.446,-0.265 0.431,-0.275 0.411,-0.283C0.392,-0.292 0.369,-0.3 0.342,-0.306L0.26,-0.328C0.199,-0.343 0.152,-0.367 0.117,-0.399C0.083,-0.43 0.066,-0.472 0.066,-0.523C0.066,-0.566 0.078,-0.603 0.101,-0.636C0.124,-0.668 0.156,-0.693 0.196,-0.711C0.236,-0.728 0.281,-0.737 0.332,-0.737C0.384,-0.737 0.429,-0.728 0.468,-0.71C0.507,-0.692 0.538,-0.668 0.56,-0.636C0.582,-0.605 0.593,-0.569 0.594,-0.528L0.468,-0.528C0.465,-0.559 0.451,-0.584 0.426,-0.601C0.401,-0.618 0.369,-0.626 0.33,-0.626C0.303,-0.626 0.279,-0.622 0.26,-0.614C0.24,-0.606 0.225,-0.594 0.214,-0.58C0.204,-0.566 0.198,-0.549 0.198,-0.531C0.198,-0.51 0.204,-0.494 0.217,-0.481C0.23,-0.468 0.245,-0.457 0.264,-0.45C0.283,-0.442 0.303,-0.435 0.322,-0.431L0.39,-0.413C0.417,-0.407 0.443,-0.398 0.469,-0.387C0.494,-0.376 0.517,-0.363 0.538,-0.346C0.558,-0.33 0.574,-0.31 0.586,-0.287C0.598,-0.263 0.604,-0.236 0.604,-0.204C0.604,-0.162 0.593,-0.124 0.571,-0.092C0.55,-0.059 0.518,-0.034 0.477,-0.016C0.436,0.002 0.387,0.011 0.329,0.011Z" style="fill-rule:nonzero;"/>
        </g>
        <g transform="matrix(150,0,0,150,773.81261,675.191519)">
            <path d="M0.073,-0L0.073,-0.728L0.345,-0.728C0.401,-0.728 0.448,-0.717 0.486,-0.696C0.524,-0.675 0.553,-0.647 0.572,-0.61C0.592,-0.574 0.601,-0.533 0.601,-0.487C0.601,-0.44 0.592,-0.399 0.572,-0.363C0.552,-0.327 0.523,-0.298 0.485,-0.277C0.447,-0.257 0.399,-0.246 0.343,-0.246L0.163,-0.246L0.163,-0.354L0.326,-0.354C0.359,-0.354 0.386,-0.359 0.407,-0.371C0.428,-0.382 0.443,-0.398 0.453,-0.418C0.463,-0.438 0.468,-0.461 0.468,-0.487C0.468,-0.513 0.463,-0.535 0.453,-0.555C0.443,-0.575 0.428,-0.591 0.407,-0.602C0.386,-0.613 0.359,-0.618 0.325,-0.618L0.204,-0.618L0.204,-0L0.073,-0Z" style="fill-rule:nonzero;"/>
        </g>
        <g transform="matrix(150,0,0,150,859.300853,675.191519)">
            <path d="M0.024,-0L0.278,-0.728L0.444,-0.728L0.703,-0L0.56,-0L0.431,-0.378C0.419,-0.417 0.405,-0.461 0.392,-0.51C0.378,-0.56 0.363,-0.616 0.346,-0.679L0.374,-0.679C0.357,-0.615 0.343,-0.559 0.329,-0.509C0.316,-0.459 0.304,-0.416 0.292,-0.378L0.167,-0L0.024,-0ZM0.172,-0.18L0.172,-0.285L0.555,-0.285L0.555,-0.18L0.172,-0.18Z" style="fill-rule:nonzero;"/>
        </g>
        <g transform="matrix(150,0,0,150,963.278161,675.191519)">
            <path d="M0.383,0.01C0.32,0.01 0.263,-0.005 0.212,-0.035C0.162,-0.064 0.123,-0.107 0.094,-0.163C0.065,-0.218 0.05,-0.285 0.05,-0.363C0.05,-0.442 0.065,-0.509 0.094,-0.565C0.123,-0.621 0.163,-0.663 0.213,-0.693C0.263,-0.722 0.32,-0.737 0.383,-0.737C0.423,-0.737 0.46,-0.732 0.495,-0.72C0.53,-0.709 0.561,-0.693 0.588,-0.671C0.615,-0.649 0.637,-0.623 0.655,-0.592C0.672,-0.561 0.684,-0.525 0.69,-0.485L0.558,-0.485C0.554,-0.507 0.547,-0.526 0.537,-0.543C0.527,-0.559 0.514,-0.574 0.498,-0.585C0.483,-0.597 0.466,-0.606 0.447,-0.612C0.428,-0.617 0.407,-0.62 0.385,-0.62C0.346,-0.62 0.31,-0.61 0.28,-0.59C0.249,-0.571 0.225,-0.541 0.207,-0.503C0.19,-0.465 0.181,-0.418 0.181,-0.363C0.181,-0.308 0.19,-0.261 0.208,-0.223C0.225,-0.185 0.249,-0.156 0.28,-0.136C0.311,-0.117 0.346,-0.107 0.385,-0.107C0.407,-0.107 0.427,-0.11 0.446,-0.116C0.465,-0.122 0.483,-0.131 0.498,-0.142C0.514,-0.154 0.526,-0.168 0.537,-0.185C0.547,-0.202 0.555,-0.221 0.559,-0.242L0.69,-0.242C0.685,-0.207 0.675,-0.175 0.658,-0.144C0.642,-0.114 0.62,-0.087 0.594,-0.064C0.567,-0.041 0.536,-0.023 0.501,-0.01C0.465,0.003 0.426,0.01 0.383,0.01Z" style="fill-rule:nonzero;"/>
        </g>
        <g transform="matrix(150,0,0,150,1074.521287,675.191519)">
            <path d="M0.073,-0L0.073,-0.728L0.546,-0.728L0.546,-0.618L0.204,-0.618L0.204,-0.422L0.521,-0.422L0.521,-0.313L0.204,-0.313L0.204,-0.11L0.548,-0.11L0.548,-0L0.073,-0Z" style="fill-rule:nonzero;"/>
        </g>
    </g>
</svg>
